<svg width="63" height="62" viewBox="0 0 63 62" fill="none" xmlns="http://www.w3.org/2000/svg">
<mask id="mask0_8864_1306" style="mask-type:luminance" maskUnits="userSpaceOnUse" x="29" y="11" width="10" height="9">
<path d="M29.0938 15.7099C29.0938 18.0307 31.109 19.9125 33.5959 19.9125C36.0823 19.9125 38.098 18.0307 38.098 15.7099C38.098 13.3896 36.0828 11.5083 33.5959 11.5083C31.109 11.5083 29.0938 13.3896 29.0938 15.7099Z" fill="white"/>
</mask>
<g mask="url(#mask0_8864_1306)">
<path d="M31.2534 23.7559L25.5078 13.5224L35.9421 7.66492L41.6872 17.8983L31.2534 23.7559Z" fill="url(#paint0_linear_8864_1306)"/>
</g>
<mask id="mask1_8864_1306" style="mask-type:luminance" maskUnits="userSpaceOnUse" x="24" y="41" width="10" height="10">
<path d="M24.4062 46.0307C24.4062 48.3515 26.422 50.2328 28.9084 50.2328C31.3953 50.2328 33.4115 48.3515 33.4115 46.0307C33.4115 43.7099 31.3958 41.8291 28.9084 41.8291C26.422 41.8291 24.4062 43.7099 24.4062 46.0307Z" fill="white"/>
</mask>
<g mask="url(#mask1_8864_1306)">
<path d="M26.5654 54.0763L20.8203 43.8429L31.2546 37.9849L36.9997 48.2188L26.5654 54.0763Z" fill="url(#paint1_linear_8864_1306)"/>
</g>
<mask id="mask2_8864_1306" style="mask-type:luminance" maskUnits="userSpaceOnUse" x="0" y="0" width="63" height="62">
<path d="M21.8599 1.84143C13.2144 5.08425 7.75353 14.1304 11.0469 23.1868C12.5107 27.2116 15.5164 30.5438 19.2151 32.6567C23.8899 35.3286 29.6529 34.6729 34.381 37.1976C38.4568 39.3743 40.5421 44.1882 39.2807 48.6561C38.7712 50.4607 37.7331 52.0819 36.3307 53.3228C34.1867 55.221 31.2787 56.1941 28.4171 56.0954C25.0992 55.9815 21.8068 54.3848 19.8667 51.6899C18.4244 49.6854 17.8173 47.1147 18.2236 44.6773C18.5568 42.6831 19.6832 41.0251 20.6747 39.3069C18.6329 38.7033 16.6407 37.9673 14.829 36.8573C10.888 34.4429 8.075 30.4099 6.3363 26.1966C6.22437 25.9262 6.11755 25.6543 6.01585 25.3804C4.32876 20.8706 4.24903 15.7388 5.55689 11.1283C4.3814 12.8926 3.79519 13.7854 3.20131 15.01C-4.90855 31.7377 2.8456 55.1065 21.31 60.6845C27.1425 62.4462 34.569 62.3772 40.7133 60.0727C48.6417 57.0992 54.2043 48.7665 51.9964 40.2514C50.8399 35.7906 47.5832 32.1195 43.631 29.8672C38.9209 27.1819 33.3751 26.7133 28.3916 24.7282C24.7946 23.2952 22.5228 18.9898 22.8259 15.2292C23.1417 11.3159 26.014 7.77613 29.9723 6.42022C31.1299 6.02362 32.3657 5.82277 33.646 5.82277C33.9481 5.82277 34.247 5.84168 34.545 5.88461C35.2161 5.92805 35.8769 6.02669 36.5198 6.17439C36.5347 6.17848 36.5505 6.18104 36.5648 6.18462C36.8019 6.24032 37.0335 6.30932 37.265 6.37831C37.452 6.43658 37.6396 6.49535 37.8231 6.56282C37.9023 6.59092 37.9815 6.62006 38.0597 6.65021C39.3701 7.16334 40.5599 7.90134 41.5382 8.83816C44.4825 11.6573 45.3391 16.115 43.6218 19.6782C43.6218 19.6782 43.5738 19.7774 43.5697 19.7758L42.0007 22.7851C43.6653 23.3289 45.2905 23.9734 46.8095 24.8724C51.2656 27.509 54.745 31.6877 56.5579 36.5337C58.2455 41.044 58.3237 46.1758 57.0163 50.7863C58.7601 48.1696 60.3353 45.4869 61.1198 42.4137C66.0476 26.2528 58.1259 6.32363 41.2627 1.22967C38.5923 0.423178 35.5866 0 32.5232 0C28.8975 0 25.1907 0.592345 21.8599 1.84143Z" fill="white"/>
</mask>
<g mask="url(#mask2_8864_1306)">
<path d="M12.0905 92.7357L-31.5703 14.9653L49.0387 -30.2886L92.699 47.4819L12.0905 92.7357Z" fill="url(#paint2_linear_8864_1306)"/>
</g>
<defs>
<linearGradient id="paint0_linear_8864_1306" x1="54.2242" y1="52.3892" x2="23.3519" y2="-2.60207" gradientUnits="userSpaceOnUse">
<stop stop-color="#FFB344"/>
<stop offset="1" stop-color="#F4722B"/>
</linearGradient>
<linearGradient id="paint1_linear_8864_1306" x1="37.6709" y1="61.6201" x2="6.79858" y2="6.6288" gradientUnits="userSpaceOnUse">
<stop stop-color="#FFB344"/>
<stop offset="1" stop-color="#F4722B"/>
</linearGradient>
<linearGradient id="paint2_linear_8864_1306" x1="45.075" y1="57.0147" x2="14.2027" y2="2.02349" gradientUnits="userSpaceOnUse">
<stop stop-color="#FFB344"/>
<stop offset="1" stop-color="#F4722B"/>
</linearGradient>
</defs>
</svg>
