<svg width="33" height="33" viewBox="0 0 33 33" fill="none" xmlns="http://www.w3.org/2000/svg">
<path d="M22.6876 25.0938H20.6113C20.0476 25.0938 19.5801 24.6262 19.5801 24.0625C19.5801 23.4987 20.0476 23.0312 20.6113 23.0312H22.6876C26.2901 23.0312 29.2188 20.1025 29.2188 16.5C29.2188 12.8975 26.2901 9.96875 22.6876 9.96875H20.6251C20.0613 9.96875 19.5938 9.50125 19.5938 8.9375C19.5938 8.37375 20.0476 7.90625 20.6251 7.90625H22.6876C27.4313 7.90625 31.2813 11.7562 31.2813 16.5C31.2813 21.2437 27.4313 25.0938 22.6876 25.0938Z" fill="#E15C5D"/>
<path d="M12.375 25.0938H10.3125C5.56875 25.0938 1.71875 21.2437 1.71875 16.5C1.71875 11.7562 5.56875 7.90625 10.3125 7.90625H12.375C12.9388 7.90625 13.4062 8.37375 13.4062 8.9375C13.4062 9.50125 12.9388 9.96875 12.375 9.96875H10.3125C6.71 9.96875 3.78125 12.8975 3.78125 16.5C3.78125 20.1025 6.71 23.0312 10.3125 23.0312H12.375C12.9388 23.0312 13.4062 23.4987 13.4062 24.0625C13.4062 24.6262 12.9388 25.0938 12.375 25.0938Z" fill="#E15C5D"/>
<path d="M22 17.5312H11C10.4363 17.5312 9.96875 17.0638 9.96875 16.5C9.96875 15.9363 10.4363 15.4688 11 15.4688H22C22.5638 15.4688 23.0312 15.9363 23.0312 16.5C23.0312 17.0638 22.5638 17.5312 22 17.5312Z" fill="#E15C5D"/>
</svg>
