<svg width="36" height="37" viewBox="0 0 36 37" fill="none" xmlns="http://www.w3.org/2000/svg">
<path d="M17.8685 34.3435C15.6648 34.3435 13.4461 33.5096 11.7188 31.8567C7.32607 27.6278 2.47176 20.8824 4.30329 12.8564C5.95614 5.57499 12.3144 2.31396 17.8685 2.31396C17.8685 2.31396 17.8685 2.31396 17.8834 2.31396C23.4376 2.31396 29.7958 5.57499 31.4487 12.8713C33.2653 20.8973 28.411 27.6278 24.0183 31.8567C22.291 33.5096 20.0723 34.3435 17.8685 34.3435ZM17.8685 4.54754C13.5354 4.54754 7.96636 6.85557 6.4922 13.3478C4.88402 20.3613 9.29161 26.4068 13.2823 30.2337C15.8583 32.7204 19.8937 32.7204 22.4697 30.2337C26.4455 26.4068 30.8531 20.3613 29.2747 13.3478C27.7856 6.85557 22.2017 4.54754 17.8685 4.54754Z" fill="#ED8015"/>
<path d="M16.0073 20.9271C15.7244 20.9271 15.4414 20.8229 15.2181 20.5995L12.9845 18.3659C12.5527 17.9341 12.5527 17.2193 12.9845 16.7875C13.4163 16.3557 14.1311 16.3557 14.5629 16.7875L16.0073 18.2319L21.1743 13.0649C21.6061 12.6331 22.3209 12.6331 22.7527 13.0649C23.1845 13.4967 23.1845 14.2115 22.7527 14.6433L16.7965 20.5995C16.5731 20.8229 16.2902 20.9271 16.0073 20.9271Z" fill="#ED8015"/>
</svg>
