<svg width="241" height="63" viewBox="0 0 241 63" fill="none" xmlns="http://www.w3.org/2000/svg">
<path d="M81.7506 26.3309C83.0908 28.1691 84.5558 29.323 86.7995 29.323C88.6391 29.323 89.7303 28.4505 89.7303 27.0469C89.7303 25.8315 89.0757 25.3956 87.112 24.4913L84.8986 23.494C81.7506 22.091 79.9117 20.3149 79.9117 17.5718C79.9117 14.0506 82.8411 11.7427 86.7375 11.7427C89.8855 11.7427 92.2548 13.2698 93.5329 15.6391L90.6649 17.8518C89.6048 16.2626 88.2963 15.4832 86.7375 15.4832C85.2724 15.4832 84.182 16.2005 84.182 17.4779C84.182 18.5691 84.8358 19.0671 86.5816 19.8473L88.9191 20.875C92.3796 22.4028 93.9998 24.1168 93.9998 26.8917C93.9998 30.6632 90.9139 33.0621 86.7995 33.0621C83.3087 33.0621 80.4414 31.2853 78.8516 28.5126L81.7506 26.3309Z" fill="#3E3E3E"/>
<path d="M109.746 32.6893H105.881V31.1932C104.759 32.3465 103.138 33.0624 101.174 33.0624C97.9013 33.0624 95.8438 31.1622 95.8438 28.4501C95.8438 25.6752 98.0882 23.9612 101.673 23.9612H105.538V23.2749C105.538 21.5616 104.541 20.5635 102.67 20.5635C101.08 20.5635 99.9581 21.218 98.5876 22.6838L96.4052 20.0958C98.1813 17.9762 100.426 16.9175 103.138 16.9175C107.158 16.9175 109.746 19.2543 109.746 23.5246V32.6893ZM105.538 26.7361H102.234C100.862 26.7361 100.083 27.2651 100.083 28.2942C100.083 29.3233 100.955 29.9779 102.296 29.9779C104.135 29.9779 105.538 28.6998 105.538 26.9237V26.7361Z" fill="#3E3E3E"/>
<path d="M127.354 32.6895H123.177V23.6814C123.177 21.9046 122.024 20.69 120.309 20.69C118.595 20.69 117.379 21.9053 117.379 23.6814V32.6895H113.172V17.2598H117.037V18.662C118.128 17.5723 119.717 16.917 121.556 16.917C125.141 16.917 127.354 19.3794 127.354 23.1199V32.6895Z" fill="#3E3E3E"/>
<path d="M146.278 17.2608V30.9751C146.278 35.9937 143.13 38.6741 138.299 38.6741C135.4 38.6741 132.876 37.707 130.724 35.8068L132.938 32.8774C134.652 34.1541 136.086 34.8722 137.956 34.8722C140.45 34.8722 142.071 33.6244 142.071 31.2248V30.3826C140.948 31.5993 139.328 32.2228 137.364 32.2228C133.094 32.2228 129.977 29.0734 129.977 24.5542C129.977 19.9722 133.156 16.918 137.364 16.918C139.576 16.918 141.322 17.7277 142.413 19.1935V17.2615H146.278V17.2608ZM138.236 20.5026C135.961 20.5026 134.247 22.0304 134.247 24.5231C134.247 27.0166 135.992 28.6692 138.236 28.6692C140.356 28.6692 142.133 27.1421 142.133 24.4921C142.133 21.8428 140.387 20.5026 138.236 20.5026Z" fill="#3E3E3E"/>
<path d="M162.762 32.6898H158.897V31.1937C157.775 32.347 156.153 33.0629 154.19 33.0629C150.917 33.0629 148.859 31.1627 148.859 28.4506C148.859 25.6757 151.104 23.9617 154.689 23.9617H158.554V23.2754C158.554 21.5621 157.556 20.564 155.687 20.564C154.096 20.564 152.974 21.2185 151.603 22.6843L149.421 20.0963C151.198 17.9767 153.441 16.918 156.153 16.918C160.174 16.918 162.762 19.2548 162.762 23.5251V32.6898ZM158.554 26.7366H155.25C153.878 26.7366 153.099 27.2656 153.099 28.2947C153.099 29.3238 153.972 29.9784 155.312 29.9784C157.151 29.9784 158.554 28.7003 158.554 26.9242V26.7366Z" fill="#3E3E3E"/>
<path d="M179.1 32.6897L173.77 25.4266H170.684V32.6897H166.477V12.1172H174.207C178.508 12.1172 181.625 14.7983 181.625 18.7567C181.625 21.375 180.254 23.4946 178.009 24.6168L183.838 32.6897H179.1ZM170.685 21.7171H174.207C176.171 21.7171 177.324 20.5328 177.324 18.7567C177.324 17.011 176.108 15.8274 174.207 15.8274H170.685V21.7171Z" fill="#3E3E3E"/>
<path d="M198.145 32.6898H194.279V31.1937C193.158 32.347 191.536 33.0629 189.573 33.0629C186.3 33.0629 184.242 31.1627 184.242 28.4506C184.242 25.6757 186.487 23.9617 190.072 23.9617H193.937V23.2754C193.937 21.5621 192.939 20.564 191.069 20.564C189.479 20.564 188.357 21.2185 186.986 22.6843L184.804 20.0963C186.58 17.9767 188.824 16.918 191.536 16.918C195.557 16.918 198.145 19.2548 198.145 23.5251V32.6898ZM193.937 26.7366H190.632C189.26 26.7366 188.481 27.2656 188.481 28.2947C188.481 29.3238 189.353 29.9784 190.694 29.9784C192.533 29.9784 193.937 28.7003 193.937 26.9242V26.7366Z" fill="#3E3E3E"/>
<path d="M214.511 32.6893H210.647V31.1932C209.525 32.3465 207.903 33.0624 205.94 33.0624C202.666 33.0624 200.609 31.1622 200.609 28.4501C200.609 25.6752 202.854 23.9612 206.439 23.9612H210.304V23.2749C210.304 21.5616 209.306 20.5635 207.437 20.5635C205.846 20.5635 204.724 21.218 203.354 22.6838L201.171 20.0958C202.948 17.9762 205.191 16.9175 207.903 16.9175C211.924 16.9175 214.512 19.2543 214.512 23.5246L214.511 32.6893ZM210.303 26.7361H206.999C205.627 26.7361 204.847 27.2651 204.847 28.2942C204.847 29.3233 205.72 29.9779 207.061 29.9779C208.899 29.9779 210.303 28.6998 210.303 26.9237V26.7361Z" fill="#3E3E3E"/>
<path d="M232.119 32.6897H227.942V23.7119C227.942 21.9351 226.788 20.7205 225.075 20.7205C223.36 20.7205 222.145 21.9358 222.145 23.7119V32.6897H217.938V9.31201H222.145V18.5691C223.173 17.54 224.669 16.9172 226.384 16.9172C229.875 16.9172 232.119 19.3796 232.119 23.1201L232.119 32.6897Z" fill="#3E3E3E"/>
<mask id="mask0_184_1134" style="mask-type:luminance" maskUnits="userSpaceOnUse" x="234" y="9" width="7" height="6">
<path d="M234.961 11.65C234.961 13.1144 236.145 14.2373 237.642 14.2373C239.137 14.2373 240.353 13.1144 240.353 11.65C240.353 10.1533 239.137 9.03174 237.642 9.03174C236.145 9.03174 234.961 10.1533 234.961 11.65Z" fill="white"/>
</mask>
<g mask="url(#mask0_184_1134)">
<path d="M240.353 9.03174H234.961V14.2373H240.353V9.03174Z" fill="url(#paint0_linear_184_1134)"/>
</g>
<path d="M239.763 17.2598H235.555V32.6895H239.763V17.2598Z" fill="#3E3E3E"/>
<path d="M82.7079 44.7837C84.0523 44.7837 85.2189 45.4396 85.8523 46.473L84.9636 47.129C84.4416 46.3178 83.6855 45.8621 82.7191 45.8621C81.2188 45.8621 80.0747 47.0175 80.0747 48.5735C80.0747 50.1289 81.2188 51.2842 82.7191 51.2842C83.6855 51.2842 84.4416 50.8286 84.9636 50.0181L85.8523 50.6741C85.2302 51.706 84.0741 52.3627 82.7079 52.3627C80.6193 52.3959 78.8079 50.6741 78.8524 48.5742C78.8086 46.473 80.6193 44.7512 82.7079 44.7837Z" fill="#808080"/>
<path d="M89.6122 46.6618C91.2013 46.6279 92.5457 47.9624 92.5119 49.5058C92.5457 51.0505 91.2013 52.3949 89.6122 52.3618C88.0456 52.3949 86.7011 51.0512 86.735 49.5058C86.7011 47.9392 88.0456 46.6392 89.6122 46.6618ZM89.6234 47.7276C88.6571 47.7276 87.9235 48.5063 87.9235 49.5163C87.9235 50.5278 88.6571 51.2833 89.6122 51.2833C90.5785 51.2833 91.3128 50.5046 91.3128 49.5163C91.3128 48.5063 90.5679 47.7276 89.6234 47.7276Z" fill="#808080"/>
<path d="M98.6106 52.2401H97.4439V48.9849C97.4439 48.2287 96.9657 47.7173 96.2547 47.7173C95.5324 47.7173 95.0104 48.24 95.0104 48.9849V52.2401H93.8438V46.7848H94.9328V47.3174C95.3433 46.885 95.8879 46.6621 96.5657 46.6621C97.8438 46.6621 98.6106 47.529 98.6106 48.8283V52.2401Z" fill="#808080"/>
<path d="M105.001 52.2401H103.835V48.9849C103.835 48.2287 103.356 47.7173 102.645 47.7173C101.923 47.7173 101.401 48.24 101.401 48.9849V52.2401H100.234V46.7848H101.323V47.3174C101.734 46.885 102.279 46.6621 102.956 46.6621C104.234 46.6621 105.001 47.529 105.001 48.8283V52.2401Z" fill="#808080"/>
<path d="M107.463 49.8951C107.607 50.7846 108.307 51.3277 109.241 51.3277C109.807 51.3277 110.34 51.1175 110.829 50.6844L111.385 51.4843C110.762 52.0733 110.04 52.3618 109.207 52.3618C107.541 52.3618 106.274 51.1288 106.274 49.5171C106.241 47.9505 107.551 46.6279 109.096 46.6618C110.54 46.6618 111.619 47.7389 111.619 49.1616C111.619 49.395 111.585 49.6405 111.529 49.8951H107.463ZM110.451 48.9838C110.44 48.1494 109.818 47.65 109.051 47.65C108.285 47.65 107.663 48.1727 107.485 48.9838H110.451Z" fill="#808080"/>
<path d="M115.499 46.6619C116.511 46.6619 117.321 47.1401 117.799 47.9287L116.977 48.5734C116.587 48.0176 116.099 47.739 115.51 47.739C114.533 47.739 113.799 48.5177 113.799 49.5059C113.799 50.5061 114.533 51.2841 115.51 51.2841C116.087 51.2841 116.577 51.0069 116.977 50.4624L117.799 51.0958C117.31 51.8844 116.488 52.3619 115.499 52.3619C113.888 52.3619 112.61 51.0958 112.61 49.5059C112.577 47.9393 113.933 46.6393 115.499 46.6619Z" fill="#808080"/>
<path d="M122.328 52.2401C121.961 52.317 121.639 52.3621 121.361 52.3621C120.105 52.3621 119.35 51.74 119.35 50.4619V47.7963H118.461V46.7849H119.35V45.3516H120.528V46.7849H122.15V47.7963H120.528V50.3631C120.528 51.0629 120.894 51.3069 121.605 51.3069C121.772 51.3069 122.005 51.285 122.328 51.2519V52.2401Z" fill="#808080"/>
<path d="M136.495 44.9057L133.64 52.3621H133.25L131.061 47.1622L128.873 52.3621H128.472L125.617 44.9057H126.917L128.75 49.8616L130.851 44.7837H131.261L133.373 49.8616L135.206 44.9057H136.495Z" fill="#808080"/>
<path d="M138.323 43.9731C138.757 43.9731 139.113 44.3174 139.113 44.7512C139.113 45.1849 138.757 45.5179 138.323 45.5179C137.879 45.5179 137.523 45.1842 137.523 44.7512C137.523 44.3181 137.879 43.9731 138.323 43.9731ZM137.734 46.784H138.901V52.2385H137.734V46.784Z" fill="#808080"/>
<path d="M143.836 52.2401C143.469 52.317 143.146 52.3621 142.869 52.3621C141.613 52.3621 140.858 51.74 140.858 50.4619V47.7963H139.969V46.7849H140.858V45.3516H142.035V46.7849H143.658V47.7963H142.035V50.3631C142.035 51.0629 142.402 51.3069 143.113 51.3069C143.28 51.3069 143.513 51.285 143.836 51.2519V52.2401Z" fill="#808080"/>
<path d="M149.782 52.2396H148.616V48.995C148.616 48.2395 148.149 47.7275 147.427 47.7275C146.704 47.7275 146.182 48.2501 146.182 48.995V52.2396H145.016V43.9072H146.182V47.3289C146.549 46.8958 147.104 46.6624 147.76 46.6624C149.004 46.6624 149.782 47.5405 149.782 48.8285V52.2396Z" fill="#808080"/>
<path d="M157.258 49.2839V52.2401H156.08V49.2839L153.547 44.9058H154.857L156.669 48.0947L158.491 44.9058H159.791L157.258 49.2839Z" fill="#808080"/>
<path d="M162.573 46.6618C164.162 46.6279 165.507 47.9624 165.474 49.5058C165.507 51.0505 164.162 52.3949 162.573 52.3618C161.006 52.3949 159.663 51.0512 159.696 49.5058C159.663 47.9392 161.007 46.6392 162.573 46.6618ZM162.585 47.7276C161.619 47.7276 160.885 48.5063 160.885 49.5163C160.885 50.5278 161.619 51.2833 162.574 51.2833C163.54 51.2833 164.274 50.5046 164.274 49.5163C164.274 48.5063 163.53 47.7276 162.585 47.7276Z" fill="#808080"/>
<path d="M166.75 46.7842H167.907V50.0394C167.907 50.7956 168.429 51.2837 169.14 51.2837C169.818 51.2837 170.34 50.7963 170.34 50.0394V46.7842H171.506V49.9512C171.506 51.4177 170.472 52.3615 169.14 52.3615C167.773 52.3615 166.75 51.4177 166.75 49.9512V46.7842Z" fill="#808080"/>
<path d="M176.263 47.8176H175.907C174.984 47.8176 174.307 48.3614 174.307 49.3292V52.2402H173.141V46.7849H174.23V47.4966C174.618 47.0071 175.196 46.7285 175.818 46.7285C175.984 46.7285 176.129 46.7518 176.263 46.7849V47.8176Z" fill="#808080"/>
<path d="M183.91 44.7837C185.255 44.7837 186.422 45.4396 187.055 46.473L186.166 47.129C185.644 46.3178 184.888 45.8621 183.921 45.8621C182.421 45.8621 181.277 47.0175 181.277 48.5735C181.277 50.1289 182.421 51.2842 183.921 51.2842C184.888 51.2842 185.643 50.8286 186.166 50.0181L187.055 50.6741C186.433 51.706 185.277 52.3627 183.91 52.3627C181.822 52.3959 180.01 50.6741 180.056 48.5742C180.01 46.473 181.822 44.7512 183.91 44.7837Z" fill="#808080"/>
<path d="M190.807 46.6618C192.397 46.6279 193.741 47.9624 193.708 49.5058C193.741 51.0505 192.397 52.3949 190.807 52.3618C189.241 52.3949 187.897 51.0512 187.93 49.5058C187.897 47.9392 189.241 46.6392 190.807 46.6618ZM190.818 47.7276C189.852 47.7276 189.119 48.5063 189.119 49.5163C189.119 50.5278 189.852 51.2833 190.807 51.2833C191.774 51.2833 192.508 50.5046 192.508 49.5163C192.508 48.5063 191.763 47.7276 190.818 47.7276Z" fill="#808080"/>
<path d="M203.228 52.2399H202.05V48.9952C202.05 48.2278 201.617 47.7277 200.916 47.7277C200.205 47.7277 199.717 48.2398 199.717 48.9395V52.2399H198.55V48.9952C198.55 48.2398 198.106 47.7277 197.406 47.7277C196.695 47.7277 196.206 48.2398 196.206 48.9952V52.2399H195.039V46.7846H196.128V47.2953C196.517 46.8961 197.051 46.6626 197.706 46.6626C198.461 46.6626 199.039 46.9849 199.361 47.5189C199.761 46.9962 200.439 46.6626 201.205 46.6626C202.461 46.6626 203.228 47.5295 203.228 48.8288V52.2399H203.228Z" fill="#808080"/>
<path d="M213.039 52.2399H211.861V48.9952C211.861 48.2278 211.428 47.7277 210.729 47.7277C210.017 47.7277 209.529 48.2398 209.529 48.9395V52.2399H208.363V48.9952C208.363 48.2398 207.918 47.7277 207.218 47.7277C206.507 47.7277 206.018 48.2398 206.018 48.9952V52.2399H204.852V46.7846H205.941V47.2953C206.329 46.8961 206.863 46.6626 207.518 46.6626C208.273 46.6626 208.851 46.9849 209.173 47.5189C209.573 46.9962 210.251 46.6626 211.018 46.6626C212.274 46.6626 213.04 47.5295 213.04 48.8288V52.2399H213.039Z" fill="#808080"/>
<path d="M214.602 46.7842H215.758V50.0394C215.758 50.7956 216.28 51.2837 216.991 51.2837C217.668 51.2837 218.191 50.7963 218.191 50.0394V46.7842H219.356V49.9512C219.356 51.4177 218.323 52.3615 216.991 52.3615C215.624 52.3615 214.602 51.4177 214.602 49.9512V46.7842Z" fill="#808080"/>
<path d="M225.759 52.2401H224.592V48.9849C224.592 48.2287 224.114 47.7173 223.403 47.7173C222.681 47.7173 222.159 48.24 222.159 48.9849V52.2401H220.992V46.7848H222.081V47.3174C222.492 46.885 223.036 46.6621 223.713 46.6621C224.992 46.6621 225.758 47.529 225.758 48.8283V52.2401H225.759Z" fill="#808080"/>
<path d="M227.972 43.9731C228.405 43.9731 228.76 44.3174 228.76 44.7512C228.76 45.1849 228.405 45.5179 227.972 45.5179C227.527 45.5179 227.172 45.1842 227.172 44.7512C227.172 44.3181 227.528 43.9731 227.972 43.9731ZM227.383 46.784H228.549V52.2385H227.383V46.784Z" fill="#808080"/>
<path d="M233.476 52.2401C233.109 52.317 232.787 52.3621 232.511 52.3621C231.255 52.3621 230.498 51.74 230.498 50.4619V47.7963H229.609V46.7849H230.498V45.3516H231.676V46.7849H233.298V47.7963H231.676V50.3631C231.676 51.0629 232.044 51.3069 232.754 51.3069C232.92 51.3069 233.154 51.285 233.475 51.2519L233.476 52.2401Z" fill="#808080"/>
<path d="M239.702 46.7842L237.046 52.8615C236.59 53.8956 235.979 54.3618 235.046 54.3618C234.745 54.3618 234.445 54.328 234.146 54.2511V53.2622C234.49 53.2954 234.702 53.3066 234.79 53.3066C235.335 53.3066 235.713 53.1176 235.979 52.5068L236.202 51.9947L234.023 46.7842H235.279L236.846 50.7511L238.457 46.7842H239.702Z" fill="#808080"/>
<mask id="mask1_184_1134" style="mask-type:luminance" maskUnits="userSpaceOnUse" x="29" y="11" width="10" height="10">
<path d="M29.4453 15.8969C29.4453 18.2178 31.4605 20.0996 33.9474 20.0996C36.4339 20.0996 38.4496 18.2178 38.4496 15.8969C38.4496 13.5766 36.4344 11.6953 33.9474 11.6953C31.4605 11.6953 29.4453 13.5766 29.4453 15.8969Z" fill="white"/>
</mask>
<g mask="url(#mask1_184_1134)">
<path d="M31.605 23.943L25.8594 13.7096L36.2936 7.85205L42.0387 18.0855L31.605 23.943Z" fill="url(#paint1_linear_184_1134)"/>
</g>
<mask id="mask2_184_1134" style="mask-type:luminance" maskUnits="userSpaceOnUse" x="24" y="42" width="10" height="9">
<path d="M24.7578 46.2177C24.7578 48.5386 26.7735 50.4198 29.2599 50.4198C31.7469 50.4198 33.7631 48.5386 33.7631 46.2177C33.7631 43.8969 31.7474 42.0161 29.2599 42.0161C26.7735 42.0161 24.7578 43.8969 24.7578 46.2177Z" fill="white"/>
</mask>
<g mask="url(#mask2_184_1134)">
<path d="M26.917 54.2633L21.1719 44.0299L31.6061 38.1719L37.3512 48.4058L26.917 54.2633Z" fill="url(#paint2_linear_184_1134)"/>
</g>
<mask id="mask3_184_1134" style="mask-type:luminance" maskUnits="userSpaceOnUse" x="0" y="0" width="63" height="63">
<path d="M22.2115 2.02844C13.566 5.27126 8.10509 14.3174 11.3985 23.3738C12.8623 27.3986 15.8679 30.7309 19.5666 32.8437C24.2415 35.5156 30.0045 34.8599 34.7325 37.3846C38.8084 39.5613 40.8936 44.3752 39.6323 48.8431C39.1227 50.6478 38.0847 52.2689 36.6823 53.5098C34.5383 55.408 31.6302 56.3811 28.7687 56.2824C25.4507 56.1685 22.1583 54.5719 20.2183 51.8769C18.776 49.8725 18.1688 47.3017 18.5751 44.8643C18.9084 42.8701 20.0348 41.2121 21.0263 39.4939C18.9845 38.8903 16.9923 38.1543 15.1805 37.0443C11.2396 34.6299 8.42656 30.597 6.68786 26.3836C6.57593 26.1132 6.46912 25.8413 6.36741 25.5674C4.68033 21.0576 4.60059 15.9258 5.90846 11.3153C4.73296 13.0796 4.14675 13.9725 3.55287 15.197C-4.55699 31.9247 3.19716 55.2935 21.6616 60.8715C27.494 62.6332 34.9206 62.5642 41.0648 60.2597C48.9933 57.2862 54.5559 48.9535 52.348 40.4384C51.1914 35.9776 47.9348 32.3065 43.9826 30.0542C39.2725 27.369 33.7267 26.9003 28.7431 24.9152C25.1461 23.4822 22.8744 19.1768 23.1774 15.4163C23.4933 11.5029 26.3656 7.96314 30.3239 6.60723C31.4815 6.21063 32.7173 6.00978 33.9976 6.00978C34.2996 6.00978 34.5986 6.02869 34.8966 6.07162C35.5676 6.11506 36.2285 6.2137 36.8714 6.3614C36.8862 6.36549 36.9021 6.36805 36.9164 6.37163C37.1535 6.42733 37.385 6.49633 37.6166 6.56533C37.8036 6.62359 37.9912 6.68236 38.1747 6.74983C38.2539 6.77794 38.3331 6.80707 38.4113 6.83722C39.7217 7.35035 40.9115 8.08835 41.8897 9.02517C44.8341 11.8443 45.6906 16.302 43.9734 19.8652C43.9734 19.8652 43.9254 19.9644 43.9213 19.9629L42.3522 22.9721C44.0168 23.5159 45.6421 24.1604 47.161 25.0594C51.6172 27.696 55.0966 31.8747 56.9094 36.7207C58.597 41.2311 58.6752 46.3628 57.3679 50.9733C59.1117 48.3566 60.6868 45.6739 61.4713 42.6008C66.3992 26.4398 58.4774 6.51064 41.6142 1.41668C38.9438 0.610189 35.9382 0.187012 32.8747 0.187012C29.2491 0.187012 25.5422 0.779357 22.2115 2.02844Z" fill="white"/>
</mask>
<g mask="url(#mask3_184_1134)">
<path d="M12.442 92.9227L-31.2188 15.1523L49.3903 -30.1016L93.0506 47.6689L12.442 92.9227Z" fill="url(#paint3_linear_184_1134)"/>
</g>
<defs>
<linearGradient id="paint0_linear_184_1134" x1="237.656" y1="23.107" x2="237.656" y2="-1.50055" gradientUnits="userSpaceOnUse">
<stop stop-color="#FFB344"/>
<stop offset="1" stop-color="#F4722B"/>
</linearGradient>
<linearGradient id="paint1_linear_184_1134" x1="54.5757" y1="52.5763" x2="23.7035" y2="-2.41494" gradientUnits="userSpaceOnUse">
<stop stop-color="#FFB344"/>
<stop offset="1" stop-color="#F4722B"/>
</linearGradient>
<linearGradient id="paint2_linear_184_1134" x1="38.0224" y1="61.8071" x2="7.15015" y2="6.81581" gradientUnits="userSpaceOnUse">
<stop stop-color="#FFB344"/>
<stop offset="1" stop-color="#F4722B"/>
</linearGradient>
<linearGradient id="paint3_linear_184_1134" x1="45.4265" y1="57.2017" x2="14.5543" y2="2.2105" gradientUnits="userSpaceOnUse">
<stop stop-color="#FFB344"/>
<stop offset="1" stop-color="#F4722B"/>
</linearGradient>
</defs>
</svg>
