<svg width="56" height="56" viewBox="0 0 56 56" fill="none" xmlns="http://www.w3.org/2000/svg">
<path d="M25.1067 38.1968C24.1267 38.1968 23.2167 37.9635 22.4 37.4968C20.5333 36.4235 19.46 34.2301 19.46 31.4534V24.5468C19.46 21.7935 20.5333 19.5768 22.4 18.5035C24.2667 17.4301 26.6933 17.5935 29.0967 18.9935L35.0933 22.4468C37.4733 23.8235 38.85 25.8534 38.85 28.0001C38.85 30.1468 37.4733 32.1768 35.0933 33.5535L29.0967 37.0068C27.7433 37.8001 26.3667 38.1968 25.1067 38.1968ZM25.13 21.3035C24.7567 21.3035 24.43 21.3734 24.1733 21.5368C23.4267 21.9801 22.9833 23.0768 22.9833 24.5468V31.4534C22.9833 32.9234 23.4033 34.0201 24.1733 34.4635C24.92 34.9068 26.0867 34.7201 27.37 33.9735L33.3667 30.5201C34.65 29.7734 35.3733 28.8635 35.3733 28.0001C35.3733 27.1368 34.65 26.2035 33.3667 25.4801L27.37 22.0268C26.53 21.5368 25.76 21.3035 25.13 21.3035Z" fill="#FCA62A"/>
<path d="M28 53.0833C14.1633 53.0833 2.91667 41.8367 2.91667 28C2.91667 14.1633 14.1633 2.91666 28 2.91666C41.8367 2.91666 53.0833 14.1633 53.0833 28C53.0833 41.8367 41.8367 53.0833 28 53.0833ZM28 6.41666C16.1 6.41666 6.41667 16.1 6.41667 28C6.41667 39.9 16.1 49.5833 28 49.5833C39.9 49.5833 49.5833 39.9 49.5833 28C49.5833 16.1 39.9 6.41666 28 6.41666Z" fill="#FCA62A"/>
</svg>
