<svg width="40" height="40" viewBox="0 0 40 40" fill="none" xmlns="http://www.w3.org/2000/svg">
<g id="Filter">
<g id="Layer 23">
<path id="Vector" d="M38.2219 32.3132H32.4799C30.9559 25.6287 21.484 25.6287 19.9599 32.3132H1.3369C0.982331 32.3132 0.642286 32.454 0.391568 32.7047C0.140851 32.9555 0 33.2955 0 33.6501C0 34.0046 0.140851 34.3447 0.391568 34.5954C0.642286 34.8461 0.982331 34.987 1.3369 34.987H19.9799C21.5107 41.6715 30.9826 41.6715 32.5 34.987H38.2219C38.5765 34.987 38.9165 34.8461 39.1673 34.5954C39.418 34.3447 39.5588 34.0046 39.5588 33.6501C39.5588 33.2955 39.418 32.9555 39.1673 32.7047C38.9165 32.454 38.5765 32.3132 38.2219 32.3132ZM26.2433 37.38C21.3102 37.2062 21.3102 30.0939 26.2433 29.9201C31.1765 30.0939 31.1765 37.2062 26.2433 37.38Z" fill="white"/>
<path id="Vector_2" d="M38.2219 18.6628H17.4532C15.9291 11.9783 6.45722 11.9783 4.93316 18.6628H1.3369C0.982331 18.6628 0.642286 18.8036 0.391568 19.0544C0.140851 19.3051 0 19.6451 0 19.9997C0 20.3542 0.140851 20.6943 0.391568 20.945C0.642286 21.1957 0.982331 21.3366 1.3369 21.3366H4.93316C6.45722 28.0211 15.9291 28.0211 17.4532 21.3366H38.2219C38.5765 21.3366 38.9165 21.1957 39.1673 20.945C39.418 20.6943 39.5588 20.3542 39.5588 19.9997C39.5588 19.6451 39.418 19.3051 39.1673 19.0544C38.9165 18.8036 38.5765 18.6628 38.2219 18.6628ZM11.1965 23.7296C6.26337 23.5692 6.27005 16.4235 11.1965 16.2697C16.123 16.4302 16.123 23.5759 11.1965 23.7296Z" fill="white"/>
<path id="Vector_3" d="M1.3369 7.68717H13.516C15.0468 14.3717 24.5187 14.3717 26.0428 7.68717H38.2219C38.5765 7.68717 38.9165 7.54631 39.1673 7.2956C39.418 7.04488 39.5588 6.70483 39.5588 6.35027C39.5588 5.9957 39.418 5.65565 39.1673 5.40494C38.9165 5.15422 38.5765 5.01337 38.2219 5.01337H26.0428C24.512 -1.67112 15.0401 -1.67112 13.516 5.01337H1.3369C0.982331 5.01337 0.642286 5.15422 0.391568 5.40494C0.140851 5.65565 0 5.9957 0 6.35027C0 6.70483 0.140851 7.04488 0.391568 7.2956C0.642286 7.54631 0.982331 7.68717 1.3369 7.68717ZM19.7794 2.62032C24.7126 2.79412 24.7126 9.90642 19.7794 10.0802C14.8463 9.90642 14.8463 2.79412 19.7794 2.62032Z" fill="white"/>
</g>
</g>
</svg>
